<svg width="216" height="32" viewBox="0 0 216 32" fill="none" xmlns="http://www.w3.org/2000/svg">
<path d="M166.454 21.697H161.5V4H180.076L180.324 21.697H174.627L171.407 28M201.873 4.48485L208.312 12.4848M208.312 12.4848L215 20.7273M208.312 12.4848L214.752 4.48485M208.312 12.4848L201.625 20.7273M1 4.48485V20.2424H11.4028M51.2801 4.9697H39.8866V12.6061M51.2801 20.2424H39.8866V12.6061M39.8866 12.6061H50.2894M123.109 12.4848V4.9697H130.615C135.118 4.9697 136.079 11.1799 131.778 12.4848M123.109 12.4848V20.4848H131.098C136.147 20.4848 136.758 13.3013 131.778 12.4848M123.109 12.4848H131.778M80.2593 4.9697V20.4848H85.956C90.3334 20.4848 93.8819 17.0117 93.8819 12.7273C93.8819 8.44288 90.3334 4.9697 85.956 4.9697H80.2593Z" stroke="#FAFAFA" stroke-width="2"/>
</svg>
